<svg xmlns="http://www.w3.org/2000/svg" viewBox="0 0 512 512">
  <path fill="#F0F0F0" d="M0 0h512v512H0z"/>
  <g fill="#D80027">
    <path d="M0 0h512v39.4H0zM0 78.8h512v39.4H0zM0 157.5h512v39.4H0zM0 236.3h512v39.4H0zM0 315h512v39.4H0zM0 393.8h512v39.4H0zM0 472.5h512V512H0z"/>
  </g>
  <path fill="#2E52B2" d="M0 0h275.5v275.5H0z"/>
  <g fill="#F0F0F0">
    <path d="M35 35l4 12h13l-10.5 7.7 4 12.3L35 59.3l-10.5 7.7 4-12.3L18 47h13z"/>
    <path d="M35 85l4 12h13l-10.5 7.7 4 12.3L35 109.3l-10.5 7.7 4-12.3L18 97h13z"/>
    <path d="M35 135l4 12h13l-10.5 7.7 4 12.3L35 159.3l-10.5 7.7 4-12.3L18 147h13z"/>
    <path d="M35 185l4 12h13l-10.5 7.7 4 12.3L35 209.3l-10.5 7.7 4-12.3L18 197h13z"/>
    <path d="M35 235l4 12h13l-10.5 7.7 4 12.3L35 259.3l-10.5 7.7 4-12.3L18 247h13z"/>
    <path d="M85 35l4 12h13l-10.5 7.7 4 12.3L85 59.3l-10.5 7.7 4-12.3L68 47h13z"/>
    <path d="M85 85l4 12h13l-10.5 7.7 4 12.3L85 109.3l-10.5 7.7 4-12.3L68 97h13z"/>
    <path d="M85 135l4 12h13l-10.5 7.7 4 12.3L85 159.3l-10.5 7.7 4-12.3L68 147h13z"/>
    <path d="M85 185l4 12h13l-10.5 7.7 4 12.3L85 209.3l-10.5 7.7 4-12.3L68 197h13z"/>
    <path d="M85 235l4 12h13l-10.5 7.7 4 12.3L85 259.3l-10.5 7.7 4-12.3L68 247h13z"/>
  </g>
</svg>